<?xml version="1.0" encoding="UTF-8"?>
<svg width="1280" height="800" viewBox="0 0 1280 800" fill="none" xmlns="http://www.w3.org/2000/svg">
  <!-- Navidrome Desktop Library - Dark Theme -->
  <!-- 优化：简化侧边栏结构，加入电台，优化视觉层次 -->

  <!-- Background -->
  <rect width="1280" height="800" fill="#0A0A0A"/>

  <!-- Title Bar -->
  <rect width="1280" height="40" fill="#141414"/>
  <circle cx="20" cy="20" r="6" fill="#FF5F56"/>
  <circle cx="40" cy="20" r="6" fill="#FFBD2E"/>
  <circle cx="60" cy="20" r="6" fill="#27CA40"/>
  <text x="640" y="26" fill="#FFFFFF" font-family="SF Pro Display, system-ui" font-size="13" font-weight="500" text-anchor="middle">Cyrene Music - Navidrome</text>

  <!-- Sidebar - 简化结构 -->
  <rect x="0" y="40" width="220" height="760" fill="#0F0F0F"/>
  <line x1="220" y1="40" x2="220" y2="800" stroke="#1C1C1E" stroke-width="1"/>

  <!-- Sidebar Navigation - 扁平化设计 (SVG Icons) -->
  <g transform="translate(0, 60)">
    <!-- 最近播放 (Active) -->
    <rect x="12" y="0" width="196" height="44" rx="10" fill="#0A84FF" opacity="0.15"/>
    <text x="48" y="28" fill="#0A84FF" font-family="SF Pro Display, Segoe UI, Roboto, Helvetica, Arial, sans-serif" font-size="14" font-weight="500">最近播放</text>
    <path d="M11.99 2C6.47 2 2 6.48 2 12s4.47 10 9.99 10C17.52 22 22 17.52 22 12S17.52 2 11.99 2zM12 20c-4.42 0-8-3.58-8-8s3.58-8 8-8 8 3.58 8 8-3.58 8-8 8zm.5-13H11v6l5.25 3.15.75-1.23-4.5-2.67z" fill="#0A84FF" transform="translate(16, 12) scale(0.8)"/>

    <!-- 艺术家 -->
    <g transform="translate(0, 48)">
      <rect x="12" y="0" width="196" height="44" rx="10" fill="transparent"/>
      <text x="48" y="28" fill="#E0E0E0" font-family="SF Pro Display, Segoe UI, Roboto, Helvetica, Arial, sans-serif" font-size="14">艺术家</text>
      <path d="M12 12c2.21 0 4-1.79 4-4s-1.79-4-4-4-4 1.79-4 4 1.79 4 4 4zm0 2c-2.67 0-8 1.34-8 4v2h16v-2c0-2.66-5.33-4-8-4z" fill="#8E8E93" transform="translate(16, 12) scale(0.8)"/>
      <text x="188" y="28" fill="#8E8E93" font-family="SF Pro Display, Segoe UI, Roboto, Helvetica, Arial, sans-serif" font-size="12" text-anchor="end">89</text>
    </g>

    <!-- 专辑 -->
    <g transform="translate(0, 96)">
      <rect x="12" y="0" width="196" height="44" rx="10" fill="transparent"/>
      <text x="48" y="28" fill="#E0E0E0" font-family="SF Pro Display, Segoe UI, Roboto, Helvetica, Arial, sans-serif" font-size="14">专辑</text>
      <path d="M12 2C6.48 2 2 6.48 2 12s4.48 10 10 10 10-4.48 10-10S17.52 2 12 2zm0 14.5c-2.49 0-4.5-2.01-4.5-4.5S9.51 7.5 12 7.5s4.5 2.01 4.5 4.5-2.01 4.5-4.5 4.5zm0-5.5c-.55 0-1 .45-1 1s.45 1 1 1 1-.45 1-1-.45-1-1-1z" fill="#8E8E93" transform="translate(16, 12) scale(0.8)"/>
      <text x="188" y="28" fill="#8E8E93" font-family="SF Pro Display, Segoe UI, Roboto, Helvetica, Arial, sans-serif" font-size="12" text-anchor="end">156</text>
    </g>

    <!-- 歌曲 -->
    <g transform="translate(0, 144)">
      <rect x="12" y="0" width="196" height="44" rx="10" fill="transparent"/>
      <text x="48" y="28" fill="#E0E0E0" font-family="SF Pro Display, Segoe UI, Roboto, Helvetica, Arial, sans-serif" font-size="14">歌曲</text>
      <path d="M12 3v10.55c-.59-.34-1.27-.55-2-.55-2.21 0-4 1.79-4 4s1.79 4 4 4 4-1.79 4-4V7h4V3h-6z" fill="#8E8E93" transform="translate(16, 12) scale(0.8)"/>
      <text x="188" y="28" fill="#8E8E93" font-family="SF Pro Display, Segoe UI, Roboto, Helvetica, Arial, sans-serif" font-size="12" text-anchor="end">1,234</text>
    </g>

    <!-- 流派 -->
    <g transform="translate(0, 192)">
      <rect x="12" y="0" width="196" height="44" rx="10" fill="transparent"/>
      <text x="48" y="28" fill="#E0E0E0" font-family="SF Pro Display, Segoe UI, Roboto, Helvetica, Arial, sans-serif" font-size="14">流派</text>
      <path d="M12 2C6.48 2 2 6.48 2 12s4.48 10 10 10 10-4.48 10-10S17.52 2 12 2zm-1 17.93c-3.95-.49-7-3.85-7-7.93 0-.62.08-1.21.21-1.79L9 15v1c0 1.1.9 2 2 2v1.93zm6.9-2.54c-.26-.81-1-1.39-1.9-1.39h-1v-3c0-.55-.45-1-1-1H8v-2h2c.55 0 1-.45 1-1V7h2c1.1 0 2-.9 2-2v-.41c2.93 1.19 5 4.06 5 7.41 0 2.08-.8 3.97-2.1 5.39z" fill="#8E8E93" transform="translate(16, 12) scale(0.8)"/>
      <text x="188" y="28" fill="#8E8E93" font-family="SF Pro Display, Segoe UI, Roboto, Helvetica, Arial, sans-serif" font-size="12" text-anchor="end">24</text>
    </g>

    <!-- 歌单 -->
    <g transform="translate(0, 240)">
      <rect x="12" y="0" width="196" height="44" rx="10" fill="transparent"/>
      <text x="48" y="28" fill="#E0E0E0" font-family="SF Pro Display, Segoe UI, Roboto, Helvetica, Arial, sans-serif" font-size="14">歌单</text>
      <path d="M3 13h2v-2H3v2zm0 4h2v-2H3v2zm0-8h2V7H3v2zm4 4h14v-2H7v2zm0 4h14v-2H7v2zM7 7v2h14V7H7z" fill="#8E8E93" transform="translate(16, 12) scale(0.8)"/>
      <text x="188" y="28" fill="#8E8E93" font-family="SF Pro Display, Segoe UI, Roboto, Helvetica, Arial, sans-serif" font-size="12" text-anchor="end">5</text>
    </g>

    <!-- 喜欢 -->
    <g transform="translate(0, 288)">
      <rect x="12" y="0" width="196" height="44" rx="10" fill="transparent"/>
      <text x="48" y="28" fill="#E0E0E0" font-family="SF Pro Display, Segoe UI, Roboto, Helvetica, Arial, sans-serif" font-size="14">喜欢</text>
      <path d="M12 21.35l-1.45-1.32C5.4 15.36 2 12.28 2 8.5 2 5.42 4.42 3 7.5 3c1.74 0 3.41.81 4.5 2.09C13.09 3.81 14.76 3 16.5 3 19.58 3 22 5.42 22 8.5c0 3.78-3.4 6.86-8.55 11.54L12 21.35z" fill="#8E8E93" transform="translate(16, 12) scale(0.8)"/>
      <text x="188" y="28" fill="#8E8E93" font-family="SF Pro Display, Segoe UI, Roboto, Helvetica, Arial, sans-serif" font-size="12" text-anchor="end">42</text>
    </g>

    <!-- 电台 -->
    <g transform="translate(0, 336)">
      <rect x="12" y="0" width="196" height="44" rx="10" fill="transparent"/>
      <text x="48" y="28" fill="#E0E0E0" font-family="SF Pro Display, Segoe UI, Roboto, Helvetica, Arial, sans-serif" font-size="14">电台</text>
      <path d="M3.24 6.15C2.51 6.43 2 7.17 2 8v12c0 1.1.89 2 2 2h16c1.11 0 2-.9 2-2V8c0-1.11-.89-2-2-2H8.3l8.26-3.34L15.88 1 3.24 6.15zM7 20c-1.66 0-3-1.34-3-3s1.34-3 3-3 3 1.34 3 3-1.34 3-3 3zm13-8h-2v-2h-2v2H4V8h16v4z" fill="#8E8E93" transform="translate(16, 12) scale(0.8)"/>
      <text x="188" y="28" fill="#8E8E93" font-family="SF Pro Display, Segoe UI, Roboto, Helvetica, Arial, sans-serif" font-size="12" text-anchor="end">8</text>
    </g>
  </g>

  <!-- 分隔线 -->
  <line x1="24" y1="460" x2="196" y2="460" stroke="#1C1C1E" stroke-width="1"/>

  <!-- 智能列表 -->
  <text x="24" y="490" fill="#5A5A5E" font-family="SF Pro Display, Segoe UI, Roboto, Helvetica, Arial, sans-serif" font-size="11" font-weight="600" letter-spacing="0.5">智能列表</text>

  <g transform="translate(0, 504)">
    <rect x="12" y="0" width="196" height="40" rx="8" fill="transparent"/>
    <text x="44" y="26" fill="#8E8E93" font-family="SF Pro Display, Segoe UI, Roboto, Helvetica, Arial, sans-serif" font-size="13">最常播放</text>
    <path d="M16 6l2.29 2.29-4.88 4.88-4-4L2 16.59 3.41 18l6-6 4 4 6.3-6.29L22 12V6z" fill="#8E8E93" transform="translate(16, 14) scale(0.8)"/>

    <g transform="translate(0, 40)">
      <rect x="12" y="0" width="196" height="40" rx="8" fill="transparent"/>
      <text x="44" y="26" fill="#8E8E93" font-family="SF Pro Display, Segoe UI, Roboto, Helvetica, Arial, sans-serif" font-size="13">随机发现</text>
      <path d="M10.59 9.17L5.41 4 4 5.41l5.17 5.17 1.42-1.41zM14.5 4l2.04 2.04L4 18.59 5.41 20 17.96 7.46 20 9.5V4h-5.5zm.33 9.41l-1.41 1.41 3.13 3.13L14.5 20H20v-5.5l-2.04 2.04-3.13-3.13z" fill="#8E8E93" transform="translate(16, 14) scale(0.8)"/>
    </g>

    <g transform="translate(0, 80)">
      <rect x="12" y="0" width="196" height="40" rx="8" fill="transparent"/>
      <text x="44" y="26" fill="#8E8E93" font-family="SF Pro Display, Segoe UI, Roboto, Helvetica, Arial, sans-serif" font-size="13">最近添加</text>
      <path d="M19 13h-6v6h-2v-6H5v-2h6V5h2v6h6v2z" fill="#8E8E93" transform="translate(16, 14) scale(0.8)"/>
    </g>
  </g>

  <!-- Server Status -->
  <g transform="translate(12, 720)">
    <rect width="196" height="48" rx="10" fill="#1C1C1E"/>
    <circle cx="24" cy="24" r="4" fill="#30D158"/>
    <text x="40" y="20" fill="#FFFFFF" font-family="SF Pro Display, Segoe UI, Roboto, Helvetica, Arial, sans-serif" font-size="12" font-weight="500">my-server.local</text>
    <text x="40" y="36" fill="#5A5A5E" font-family="SF Pro Display, Segoe UI, Roboto, Helvetica, Arial, sans-serif" font-size="11">在线 · 1,234 首歌曲</text>
  </g>

  <!-- Main Content Area -->
  <g transform="translate(220, 40)">
    <!-- Content Header -->
    <rect width="1060" height="72" fill="#0A0A0A"/>

    <!-- Title -->
    <text x="32" y="46" fill="#FFFFFF" font-family="SF Pro Display, Segoe UI, Roboto, Helvetica, Arial, sans-serif" font-size="28" font-weight="700">最近播放</text>

    <!-- Search & Controls -->
    <rect x="720" y="16" width="220" height="40" rx="10" fill="#1C1C1E"/>
    <text x="748" y="42" fill="#8E8E93" font-family="SF Pro Display, Segoe UI, Roboto, Helvetica, Arial, sans-serif" font-size="14">搜索...</text>
    <path d="M15.5 14h-.79l-.28-.27C15.41 12.59 16 11.11 16 9.5 16 5.91 13.09 3 9.5 3S3 5.91 3 9.5 5.91 16 9.5 16c1.61 0 3.09-.59 4.23-1.57l.27.28v.79l5 4.99L20.49 19l-4.99-5zm-6 0C7.01 14 5 11.99 5 9.5S7.01 5 9.5 5 14 7.01 14 9.5 11.99 14 9.5 14z" fill="#8E8E93" transform="translate(725, 26) scale(0.8)"/>

    <!-- View Toggle Button (New) -->
    <rect x="896" y="16" width="40" height="40" rx="20" fill="#1C1C1E"/>
    <!-- Grid Icon (Active) -->
    <path d="M4 11h5V5H4v6zm0 7h5v-6H4v6zm6 0h5v-6h-5v6zm6 0h5v-6h-5v6zm-6-7h5V5h-5v6zm6-6v6h5V5h-5z" fill="#FFFFFF" transform="translate(906, 26) scale(0.8)"/>

    <!-- Shuffle Button -->
    <rect x="956" y="16" width="80" height="40" rx="20" fill="#0A84FF"/>
    <text x="996" y="42" fill="#FFFFFF" font-family="SF Pro Display, Segoe UI, Roboto, Helvetica, Arial, sans-serif" font-size="14" font-weight="500" text-anchor="middle">随机</text>
  </g>

  <!-- Album Grid -->
  <g transform="translate(252, 128)">
    <!-- Row 1 -->
    <g>
      <!-- Album 1 -->
      <g>
        <rect width="180" height="180" rx="14" fill="#2C2C2E"/>
        <rect x="40" y="50" width="100" height="80" rx="10" fill="#3A3A3C"/>
        <text x="90" y="100" fill="#8E8E93" font-family="SF Pro Display, system-ui" font-size="28" text-anchor="middle">♪</text>
        <text x="90" y="206" fill="#FFFFFF" font-family="SF Pro Display, system-ui" font-size="14" font-weight="500" text-anchor="middle">Random Access</text>
        <text x="90" y="226" fill="#8E8E93" font-family="SF Pro Display, system-ui" font-size="12" text-anchor="middle">Daft Punk</text>
      </g>

      <!-- Album 2 -->
      <g transform="translate(196, 0)">
        <rect width="180" height="180" rx="14" fill="#1E3A5F"/>
        <rect x="40" y="50" width="100" height="80" rx="10" fill="#2A4A6F"/>
        <text x="90" y="100" fill="#4A9FFF" font-family="SF Pro Display, system-ui" font-size="28" text-anchor="middle">♪</text>
        <text x="90" y="206" fill="#FFFFFF" font-family="SF Pro Display, system-ui" font-size="14" font-weight="500" text-anchor="middle">The Dark Side</text>
        <text x="90" y="226" fill="#8E8E93" font-family="SF Pro Display, system-ui" font-size="12" text-anchor="middle">Pink Floyd</text>
      </g>

      <!-- Album 3 -->
      <g transform="translate(392, 0)">
        <rect width="180" height="180" rx="14" fill="#3D2E1E"/>
        <rect x="40" y="50" width="100" height="80" rx="10" fill="#4D3E2E"/>
        <text x="90" y="100" fill="#D4A574" font-family="SF Pro Display, system-ui" font-size="28" text-anchor="middle">♪</text>
        <text x="90" y="206" fill="#FFFFFF" font-family="SF Pro Display, system-ui" font-size="14" font-weight="500" text-anchor="middle">Abbey Road</text>
        <text x="90" y="226" fill="#8E8E93" font-family="SF Pro Display, system-ui" font-size="12" text-anchor="middle">The Beatles</text>
      </g>

      <!-- Album 4 -->
      <g transform="translate(588, 0)">
        <rect width="180" height="180" rx="14" fill="#2E1E3D"/>
        <rect x="40" y="50" width="100" height="80" rx="10" fill="#3E2E4D"/>
        <text x="90" y="100" fill="#9F7AEA" font-family="SF Pro Display, system-ui" font-size="28" text-anchor="middle">♪</text>
        <text x="90" y="206" fill="#FFFFFF" font-family="SF Pro Display, system-ui" font-size="14" font-weight="500" text-anchor="middle">Purple Rain</text>
        <text x="90" y="226" fill="#8E8E93" font-family="SF Pro Display, system-ui" font-size="12" text-anchor="middle">Prince</text>
      </g>

      <!-- Album 5 -->
      <g transform="translate(784, 0)">
        <rect width="180" height="180" rx="14" fill="#1E2E1E"/>
        <rect x="40" y="50" width="100" height="80" rx="10" fill="#2E3E2E"/>
        <text x="90" y="100" fill="#68D391" font-family="SF Pro Display, system-ui" font-size="28" text-anchor="middle">♪</text>
        <text x="90" y="206" fill="#FFFFFF" font-family="SF Pro Display, system-ui" font-size="14" font-weight="500" text-anchor="middle">Good Kid</text>
        <text x="90" y="226" fill="#8E8E93" font-family="SF Pro Display, system-ui" font-size="12" text-anchor="middle">Kendrick Lamar</text>
      </g>
    </g>

    <!-- Row 2 -->
    <g transform="translate(0, 260)">
      <!-- Album 6 -->
      <g>
        <rect width="180" height="180" rx="14" fill="#3D1E1E"/>
        <rect x="40" y="50" width="100" height="80" rx="10" fill="#4D2E2E"/>
        <text x="90" y="100" fill="#FC8181" font-family="SF Pro Display, system-ui" font-size="28" text-anchor="middle">♪</text>
        <text x="90" y="206" fill="#FFFFFF" font-family="SF Pro Display, system-ui" font-size="14" font-weight="500" text-anchor="middle">Thriller</text>
        <text x="90" y="226" fill="#8E8E93" font-family="SF Pro Display, system-ui" font-size="12" text-anchor="middle">Michael Jackson</text>
      </g>

      <!-- Album 7 -->
      <g transform="translate(196, 0)">
        <rect width="180" height="180" rx="14" fill="#1E3D3D"/>
        <rect x="40" y="50" width="100" height="80" rx="10" fill="#2E4D4D"/>
        <text x="90" y="100" fill="#4FD1C5" font-family="SF Pro Display, system-ui" font-size="28" text-anchor="middle">♪</text>
        <text x="90" y="206" fill="#FFFFFF" font-family="SF Pro Display, system-ui" font-size="14" font-weight="500" text-anchor="middle">OK Computer</text>
        <text x="90" y="226" fill="#8E8E93" font-family="SF Pro Display, system-ui" font-size="12" text-anchor="middle">Radiohead</text>
      </g>

      <!-- Album 8 -->
      <g transform="translate(392, 0)">
        <rect width="180" height="180" rx="14" fill="#3D3D1E"/>
        <rect x="40" y="50" width="100" height="80" rx="10" fill="#4D4D2E"/>
        <text x="90" y="100" fill="#ECC94B" font-family="SF Pro Display, system-ui" font-size="28" text-anchor="middle">♪</text>
        <text x="90" y="206" fill="#FFFFFF" font-family="SF Pro Display, system-ui" font-size="14" font-weight="500" text-anchor="middle">A Night at Opera</text>
        <text x="90" y="226" fill="#8E8E93" font-family="SF Pro Display, system-ui" font-size="12" text-anchor="middle">Queen</text>
      </g>

      <!-- Album 9 -->
      <g transform="translate(588, 0)">
        <rect width="180" height="180" rx="14" fill="#2C2C2E"/>
        <rect x="40" y="50" width="100" height="80" rx="10" fill="#3A3A3C"/>
        <text x="90" y="100" fill="#A0AEC0" font-family="SF Pro Display, system-ui" font-size="28" text-anchor="middle">♪</text>
        <text x="90" y="206" fill="#FFFFFF" font-family="SF Pro Display, system-ui" font-size="14" font-weight="500" text-anchor="middle">Parachutes</text>
        <text x="90" y="226" fill="#8E8E93" font-family="SF Pro Display, system-ui" font-size="12" text-anchor="middle">Coldplay</text>
      </g>

      <!-- Album 10 -->
      <g transform="translate(784, 0)">
        <rect width="180" height="180" rx="14" fill="#3D1E2E"/>
        <rect x="40" y="50" width="100" height="80" rx="10" fill="#4D2E3E"/>
        <text x="90" y="100" fill="#ED64A6" font-family="SF Pro Display, system-ui" font-size="28" text-anchor="middle">♪</text>
        <text x="90" y="206" fill="#FFFFFF" font-family="SF Pro Display, system-ui" font-size="14" font-weight="500" text-anchor="middle">1989</text>
        <text x="90" y="226" fill="#8E8E93" font-family="SF Pro Display, system-ui" font-size="12" text-anchor="middle">Taylor Swift</text>
      </g>
    </g>
  </g>

  <!-- Mini Player -->
  <g transform="translate(220, 720)">
    <rect width="1060" height="80" fill="#141414"/>
    <line x1="0" y1="0" x2="1060" y2="0" stroke="#1C1C1E" stroke-width="1"/>

    <!-- Progress Bar -->
    <rect x="0" y="0" width="1060" height="3" fill="#2C2C2E"/>
    <rect x="0" y="0" width="424" height="3" fill="#0A84FF"/>

    <!-- Album Art -->
    <rect x="24" y="18" width="48" height="48" rx="8" fill="#1E3A5F"/>
    <text x="48" y="48" fill="#4A9FFF" font-family="SF Pro Display, system-ui" font-size="18" text-anchor="middle">♪</text>

    <!-- Track Info -->
    <text x="88" y="38" fill="#FFFFFF" font-family="SF Pro Display, system-ui" font-size="14" font-weight="500">Breathe (In the Air)</text>
    <text x="88" y="56" fill="#8E8E93" font-family="SF Pro Display, system-ui" font-size="12">Pink Floyd · The Dark Side of the Moon</text>

    <!-- Controls -->
    <g transform="translate(480, 24)">
      <circle cx="0" cy="16" r="16" fill="#1C1C1E"/>
      <path d="M6 6h2v12H6zm3.5 6l8.5 6V6z" fill="#FFFFFF" transform="translate(-11, 4) scale(0.9)"/>

      <circle cx="56" cy="16" r="24" fill="#0A84FF"/>
      <rect x="48" y="6" width="5" height="20" rx="2" fill="#FFFFFF"/>
      <rect x="59" y="6" width="5" height="20" rx="2" fill="#FFFFFF"/>

      <circle cx="112" cy="16" r="16" fill="#1C1C1E"/>
      <path d="M6 18l8.5-6L6 6v12zM16 6v12h2V6h-2z" fill="#FFFFFF" transform="translate(101, 4) scale(0.9)"/>
    </g>

    <!-- Time -->
    <text x="680" y="46" fill="#8E8E93" font-family="SF Pro Display, Segoe UI, Roboto, Helvetica, Arial, sans-serif" font-size="12">1:23 / 2:49</text>

    <!-- Shuffle & Repeat -->
    <path d="M10.59 9.17L5.41 4 4 5.41l5.17 5.17 1.42-1.41zM14.5 4l2.04 2.04L4 18.59 5.41 20 17.96 7.46 20 9.5V4h-5.5zm.33 9.41l-1.41 1.41 3.13 3.13L14.5 20H20v-5.5l-2.04 2.04-3.13-3.13z" fill="#5A5A5E" transform="translate(770, 34) scale(0.8)"/>
    <path d="M7 7h10v3l4-4-4-4v3H5v6h2V7zm10 10H7v-3l-4 4 4 4v-3h12v-6h-2v6z" fill="#0A84FF" transform="translate(810, 34) scale(0.8)"/>

    <!-- Volume -->
    <g transform="translate(900, 30)">
      <path d="M3 9v6h4l5 5V4L7 9H3zm13.5 3c0-1.77-1.02-3.29-2.5-4.03v8.05c1.48-.73 2.5-2.25 2.5-4.02zM14 3.23v2.06c2.89.86 5 3.54 5 6.71s-2.11 5.85-5 6.71v2.06c4.01-.91 7-4.49 7-8.77s-2.99-7.86-7-8.77z" fill="#8E8E93" transform="translate(-10, 2) scale(0.8)"/>
      <rect x="28" y="6" width="100" height="4" rx="2" fill="#2C2C2E"/>
      <rect x="28" y="6" width="70" height="4" rx="2" fill="#FFFFFF"/>
    </g>
  </g>
</svg>
